HIERARCHY
ROOT Hips
{
	OFFSET	0.000000	0.000000	0.000000
	CHANNELS 6 Xposition Yposition Zposition Zrotation Xrotation Yrotation
	JOINT LeftUpLeg
	{
		OFFSET	7.620000	0.000000	0.000000
		CHANNELS 3 Zrotation Xrotation Yrotation
		JOINT LeftLeg
		{
			OFFSET	0.000000	-44.449999	0.000000
			CHANNELS 3 Zrotation Xrotation Yrotation
			JOINT LeftFoot
			{
				OFFSET	0.000000	-39.369999	0.000000
				CHANNELS 3 Zrotation Xrotation Yrotation
				JOINT LeftFootHeel
				{
					OFFSET	0.000000	-8.890000	-3.810000
					CHANNELS 3 Zrotation Xrotation Yrotation
					End Site
					{
						OFFSET	0.000000	0.000000	15.240000
					}
				}
			}
		}
	}
	JOINT RightUpLeg
	{
		OFFSET	-7.620000	0.000000	0.000000
		CHANNELS 3 Zrotation Xrotation Yrotation
		JOINT RightLeg
		{
			OFFSET	0.000000	-44.449999	0.000000
			CHANNELS 3 Zrotation Xrotation Yrotation
			JOINT RightFoot
			{
				OFFSET	0.000000	-39.369999	0.000000
				CHANNELS 3 Zrotation Xrotation Yrotation
				JOINT RightFootHeel
				{
					OFFSET	0.000000	-8.890000	-3.810000
					CHANNELS 3 Zrotation Xrotation Yrotation
					End Site
					{
						OFFSET	0.000000	0.000000	15.240000
					}
				}
			}
		}
	}
	JOINT Spine
	{
		OFFSET	0.000000	7.620000	-2.540000
		CHANNELS 3 Zrotation Xrotation Yrotation
		JOINT Spine1
		{
			OFFSET	0.000000	7.620000	0.000000
			CHANNELS 3 Zrotation Xrotation Yrotation
			JOINT LeftCollar
			{
				OFFSET	7.620000	33.020000	2.540000
				CHANNELS 3 Zrotation Xrotation Yrotation
				JOINT LeftShoulder
				{
					OFFSET	12.700000	0.000000	0.000000
					CHANNELS 3 Zrotation Xrotation Yrotation
					JOINT LeftForeArm
					{
						OFFSET	0.000000	-30.480000	0.000000
						CHANNELS 3 Zrotation Xrotation Yrotation
						JOINT LeftHand
						{
							OFFSET	0.000000	-24.130000	0.000000
							CHANNELS 3 Zrotation Xrotation Yrotation
							End Site
							{
								OFFSET	0.000000	-17.780000	0.000000
							}
						}
					}
				}
			}
			JOINT RightCollar
			{
				OFFSET	-7.620000	33.020000	2.540000
				CHANNELS 3 Zrotation Xrotation Yrotation
				JOINT RightShoulder
				{
					OFFSET	-12.700000	0.000000	0.000000
					CHANNELS 3 Zrotation Xrotation Yrotation
					JOINT RightForeArm
					{
						OFFSET	0.000000	-30.480000	0.000000
						CHANNELS 3 Zrotation Xrotation Yrotation
						JOINT RightHand
						{
							OFFSET	0.000000	-24.130000	0.000000
							CHANNELS 3 Zrotation Xrotation Yrotation
							End Site
							{
								OFFSET	0.000000	-17.780000	0.000000
							}
						}
					}
				}
			}
			JOINT Neck
			{
				OFFSET	0.000000	38.099999	2.540000
				CHANNELS 3 Zrotation Xrotation Yrotation
				JOINT Head
				{
					OFFSET	0.000000	16.510000	0.000000
					CHANNELS 3 Zrotation Xrotation Yrotation
					End Site
					{
						OFFSET	0.000000	10.160000	0.000000
					}
				}
			}
		}
	}
}
MOTION
Frames:     8
Frame Time: 0.016667
85.683858	94.159290	64.485670	-170.174362	175.623764	-45.463299	4.996220	-7.664679	13.485135	16.748505	49.444298	-27.994617	1.147202	5.148002	-4.724028	0.	0.	0.	-3.703070	4.708658	-5.439123	0.379034	5.446900	5.592602	3.810965	-2.726570	-10.782181	0.	0.	0.	-0.000002	0.000000	0.000001	9.882698	14.029468	2.803918	-0.908549	1.289950	4.921783	3.604831	-4.169496	2.929357	-2.487444	-2.359273	-5.415355	9.993093	3.172640	-14.502423	-3.783572	0.695068	-0.866285	-6.243618	-5.425581	-6.606692	3.899970	-7.900885	1.890712	-10.924450	1.203233	13.696557	-6.485843	4.988584	16.237946	-6.485843	4.988583	16.237949	
86.386896	94.276163	64.249658	-170.619919	175.532257	-43.893070	5.639864	-8.886405	13.384304	14.271255	48.573292	-26.052958	0.815840	3.946512	-4.738853	0.	0.	0.	-3.641499	5.500545	-5.179395	0.455999	4.698210	3.810305	3.662254	-2.948436	-10.838523	0.	0.	0.	0.000000	0.000001	-0.000000	9.725696	13.901279	3.454177	-0.829273	1.343520	4.745657	3.563157	-3.739228	2.843434	-2.525728	-2.451994	-5.339340	10.132642	3.085567	-14.394511	-3.777669	0.692699	-0.877465	-6.543858	-5.586017	-6.890207	3.932418	-7.935377	1.979206	-11.089643	1.105698	13.670403	-6.428008	5.112157	15.828294	-6.428007	5.112158	15.828298	
87.075943	94.377174	63.959816	-171.007706	175.468979	-42.538055	6.242294	-9.802449	13.448138	11.224237	47.002613	-23.990553	0.955054	3.109730	-3.982655	0.	0.	0.	-3.462758	6.301815	-4.806536	0.311936	3.955922	1.913519	3.642435	-3.267653	-10.805572	0.	0.	0.	-0.000000	0.000000	0.000001	9.547940	13.905340	4.133758	-0.893205	1.205956	4.741701	3.677205	-3.317004	2.849072	-2.511452	-2.487975	-5.330545	10.146258	2.994394	-14.359057	-3.753405	0.709633	-0.878993	-6.915303	-5.773304	-7.144231	4.196124	-8.166894	2.148003	-11.303490	1.032280	13.709172	-6.454602	5.237594	15.406523	-6.454601	5.237594	15.406528	
87.779127	94.481179	63.691082	-171.478607	175.387421	-41.120575	6.772852	-10.533319	13.311941	7.861935	44.680359	-21.829304	1.371693	2.753667	-2.733281	0.	0.	0.	-3.240411	7.132224	-4.490195	0.043566	3.043633	0.057686	3.539469	-3.418103	-10.697674	0.	0.	0.	0.000001	0.000002	-0.000001	9.413825	13.820097	4.641645	-1.071361	1.127802	4.830009	3.770127	-2.836420	2.850715	-2.494903	-2.526072	-5.332384	10.147649	2.981318	-14.288246	-3.853793	0.721220	-0.752383	-7.208863	-5.728124	-7.344408	4.425903	-8.509441	2.191771	-11.449691	0.974264	13.540050	-6.462125	5.332311	15.040495	-6.462127	5.332309	15.040497	
88.526436	94.539199	63.253483	-171.742218	175.237183	-39.670345	7.391222	-11.021349	13.042980	4.903005	42.007778	-19.754951	1.869336	2.265684	-1.097438	0.	0.	0.	-3.035034	8.274700	-4.252701	-0.050899	2.118775	-1.493766	3.483977	-3.644145	-10.858568	0.	0.	0.	-0.000001	0.000002	0.000000	9.320438	13.899098	5.160922	-1.092839	1.126840	4.786059	3.722319	-2.560445	2.738589	-2.538237	-2.428755	-5.348519	10.139520	3.019115	-14.150963	-3.871303	0.756363	-0.698631	-7.494418	-5.663189	-7.451563	4.553800	-8.831170	2.088987	-11.452687	0.756059	13.380582	-6.356768	5.420213	14.613487	-6.356768	5.420212	14.613485	
89.159779	94.598217	62.848266	-172.137283	174.944336	-38.201515	7.624304	-11.336660	12.885806	2.624364	38.783390	-17.598974	2.183675	2.210558	-0.083877	0.	0.	0.	-3.099112	9.395394	-4.030637	-0.019865	1.181347	-3.027496	3.373244	-3.795148	-11.025356	0.	0.	0.	-0.000001	0.000001	-0.000001	8.972997	13.972173	5.446978	-1.132422	1.201326	4.715863	3.786513	-2.322880	2.906287	-2.639032	-2.431375	-5.298843	10.021421	3.155132	-14.224279	-3.897923	0.872691	-0.458861	-7.566175	-5.675687	-7.445873	4.544282	-9.105829	2.083328	-11.504277	0.454546	13.284251	-6.264068	5.485415	14.295478	-6.264068	5.485413	14.295479	
89.666725	94.637478	62.521149	-172.563629	174.676071	-36.582958	7.839790	-11.448054	12.694587	0.970246	35.049030	-15.318148	2.593893	2.348572	0.006010	0.	0.	0.	-3.142052	10.430226	-4.029617	-0.020619	0.208388	-4.428423	3.272101	-3.844454	-11.260253	0.	0.	0.	-0.000002	0.000000	0.000002	8.584537	13.978456	5.475714	-1.115586	1.277819	4.972685	3.730346	-2.046865	2.927835	-2.738163	-2.419331	-5.249473	10.038491	3.243314	-14.355852	-3.722583	0.968009	-0.258041	-7.826994	-5.667250	-7.350463	4.706148	-9.339509	2.285634	-11.482895	0.273916	13.120975	-6.144013	5.545539	14.044396	-6.144011	5.545538	14.044397	
90.170154	94.653436	62.120626	-173.071411	174.653656	-35.012112	8.034638	-11.652747	12.661169	-0.076322	31.058514	-13.364730	2.824399	2.337615	-0.492908	0.	0.	0.	-3.167062	11.249416	-4.027938	0.091775	-0.733702	-5.858160	3.012632	-3.968160	-11.394749	0.	0.	0.	-0.000001	0.000000	-0.000001	8.376428	13.897481	5.588755	-1.212031	1.100549	5.125494	3.536308	-1.704072	2.995514	-2.607388	-2.303981	-5.247485	9.859763	3.181512	-14.528511	-3.749107	0.964577	-0.003476	-8.037601	-5.740933	-7.385496	4.935471	-9.536530	2.585018	-11.532760	0.237832	13.187260	-6.076536	5.472728	13.679496	-6.076535	5.472725	13.679496	
